<svg xmlns="http://www.w3.org/2000/svg" viewBox="0 0 24 24" fill="none" stroke-width="2" stroke-linecap="round" stroke-linejoin="round" stroke="currentColor">
  <circle cx="12" cy="12" r="10"></circle>
  <path d="M2 12a10 10 0 0 0 20 0"></path>
  <path d="M12 2a10 10 0 0 0 0 20"></path>
  <path d="M3.5 9.5c1-1 2-1.5 3-1.5c2 0 2 2 4 2s3-2 5-2c1.5 0 2.5 1 3.5 2" 
        stroke-width="1.5"></path>
  <path d="M4 14c1.5-1 3-1 4-1c2 0 2.5 1.5 4.5 1.5c1.5 0 3-1 4.5-1.5" 
        stroke-width="1.5"></path>
</svg> 
